<svg id="cookie" enable-background="new 0 0 511.414 511.414" height="512" viewBox="0 0 511.414 511.414" width="512" xmlns="http://www.w3.org/2000/svg"><g><g><path d="m461.227 377.755c-9.51 60.78-57.15 108.41-117.92 117.93-69.9 10.95-139.8 10.95-209.71 0-60.77-9.52-108.4-57.15-117.92-117.93-10.95-69.9-10.95-139.8 0-209.7 9.52-60.77 57.15-108.41 117.92-117.92 45.52-7.13 91.04-9.62 136.56-7.46-7.55 9.49-11.98 21.44-11.98 34.17 0 2.42.16 4.86.49 7.32 1.68 12.63 7.52 23.7 15.96 31.99 8.44 8.28 19.48 13.8 31.55 15.34-7.64 9.84-11.52 21.76-11.52 33.72 0 13.02 4.6 26.09 13.94 36.58 10.87 12.19 25.94 18.4 41.08 18.4 9.91 0 19.84-2.66 28.65-8.05.3 13.05 5.23 25.25 13.43 34.72s19.67 16.21 33.01 18.31c2.9.46 5.78.68 8.62.68 13.41 0 26-4.92 35.74-13.27 1.27 41.72-1.36 83.45-7.9 125.17z" fill="#c6865c"/><path d="m131.007 495.255c-59.53-10.45-105.95-57.59-115.33-117.5-10.95-69.9-10.95-139.8 0-209.7 9.38-59.9 55.8-107.05 115.33-117.49-31.96 24.64-54.34 61-60.89 102.82-12.49 79.68-12.49 159.36 0 239.04 6.55 41.83 28.93 78.19 60.89 102.83z" fill="#b16e3d"/><g fill="#ffe07d"><path d="m421.146 91.989-1.663-1.663c-5.866-5.866-6.188-15.272-.737-21.526l16.766-19.236c6.006-6.89 16.59-7.253 23.053-.79l4.133 4.133c6.463 6.463 6.1 17.048-.79 23.053l-19.236 16.766c-6.254 5.451-15.66 5.129-21.526-.737z"/><path d="m365.6 64.225-2.272-.609c-8.013-2.147-12.995-10.132-11.402-18.273l4.902-25.042c1.756-8.97 10.741-14.576 19.57-12.211l5.646 1.513c8.829 2.366 13.807 11.714 10.843 20.36l-8.276 24.138c-2.691 7.847-10.998 12.271-19.011 10.124z"/><path d="m447.856 148.144-.609-2.272c-2.147-8.013 2.277-16.32 10.124-19.011l24.138-8.276c8.646-2.964 17.994 2.014 20.36 10.843l1.513 5.646c2.366 8.829-3.241 17.814-12.211 19.57l-25.042 4.902c-8.141 1.593-16.126-3.389-18.273-11.402z"/></g><circle cx="122.627" cy="210.741" fill="#664545" r="44.653"/><path d="m133.414 254.081c-3.45.86-7.07 1.32-10.79 1.32-24.66 0-44.65-20-44.65-44.66s19.99-44.65 44.65-44.65c3.72 0 7.34.46 10.79 1.32-19.45 4.82-33.86 22.39-33.86 43.33s14.41 38.52 33.86 43.34z" fill="#523838"/><circle cx="121.269" cy="334.035" fill="#664545" r="23.313"/><path d="m128.496 356.195c-2.28.75-4.71 1.15-7.23 1.15-12.88 0-23.31-10.43-23.31-23.31s10.43-23.31 23.31-23.31c2.52 0 4.95.4 7.23 1.15-9.34 3.03-16.09 11.8-16.09 22.16s6.75 19.13 16.09 22.16z" fill="#523838"/><circle cx="231.432" cy="415.854" fill="#664545" r="16.294"/><path d="m237.088 431.144c-1.76.65-3.66 1.01-5.65 1.01-9 0-16.3-7.3-16.3-16.3 0-8.99 7.3-16.29 16.3-16.29 1.99 0 3.89.36 5.65 1.01-6.22 2.29-10.65 8.27-10.65 15.28 0 7.02 4.43 13 10.65 15.29z" fill="#523838"/><circle cx="247.725" cy="231.744" fill="#664545" r="16.294"/><path d="m253.382 247.034c-1.76.65-3.66 1.01-5.65 1.01-9 0-16.3-7.3-16.3-16.3 0-8.99 7.3-16.29 16.3-16.29 1.99 0 3.89.36 5.65 1.01-6.22 2.29-10.65 8.27-10.65 15.28 0 7.02 4.43 13 10.65 15.29z" fill="#523838"/><circle cx="350.079" cy="339.674" fill="#664545" r="28.952"/><path d="m358.217 367.454c-2.58.76-5.31 1.17-8.14 1.17-15.99 0-28.95-12.96-28.95-28.95s12.96-28.95 28.95-28.95c2.83 0 5.56.41 8.14 1.17-12.02 3.51-20.8 14.62-20.8 27.78s8.78 24.27 20.8 27.78z" fill="#523838"/><g fill="#c6865c"><path d="m336.038 148.683 12.535-14.101c3.34-3.757 9.464-2.698 11.348 1.963l8.506 21.041c2.163 5.351-2.925 10.784-8.406 8.976l-21.041-6.94c-4.629-1.527-6.181-7.295-2.942-10.939z"/><path d="m421.137 179.259 19.919 9.996c5.307 2.664 5.969 9.975 1.227 13.549l-21.411 16.133c-5.445 4.103-13.199-.044-12.81-6.85l1.492-26.129c.329-5.749 6.437-9.281 11.583-6.699z"/></g></g><g><path d="m238.453 511.356c-35.421 0-70.844-2.755-106.02-8.264-64.21-10.059-114.11-59.963-124.168-124.179-11.02-70.344-11.02-141.678 0-212.021 5.05-32.216 20.078-61.229 43.458-83.904 2.973-2.884 7.721-2.811 10.605.163s2.811 7.722-.163 10.605c-21.025 20.391-34.54 46.483-39.082 75.458-10.778 68.802-10.778 138.574 0 207.378 9.046 57.753 53.923 102.635 111.671 111.681 68.812 10.778 138.587 10.778 207.389 0 57.758-9.048 102.635-53.929 111.671-111.68 5.725-36.521 8.437-73.513 8.086-110.158-6.614 3.414-13.797 5.619-21.272 6.496-4.11.482-7.84-2.461-8.323-6.575-.482-4.114 2.462-7.84 6.576-8.323 9.366-1.098 18.136-4.953 25.363-11.146 2.192-1.879 5.268-2.332 7.911-1.166 2.642 1.167 4.378 3.746 4.466 6.632 1.279 42.011-1.409 84.592-7.987 126.56-4.913 31.398-19.382 59.868-41.844 82.329-22.459 22.459-50.926 36.93-82.325 41.849-35.171 5.511-70.591 8.265-106.012 8.265z"/><path d="m410.39 268.344c-1.042 0-2.101-.218-3.11-.679-8.166-3.728-15.297-9.076-21.197-15.896-7.017-8.104-11.807-17.863-13.968-28.237-7.121 2.739-14.723 4.16-22.44 4.16-17.815 0-34.829-7.621-46.678-20.908-10.217-11.476-15.842-26.238-15.842-41.572 0-10.02 2.44-19.922 6.994-28.753-9.241-2.974-17.791-8.1-24.776-14.953-10.015-9.837-16.287-22.407-18.142-36.355-.368-2.745-.556-5.543-.556-8.309 0-9.409 2.18-18.72 6.269-27.162-40.608-1.126-81.646 1.511-122.188 7.861-17.959 2.805-34.864 9.1-50.247 18.711-3.514 2.195-8.14 1.126-10.335-2.387-2.194-3.513-1.126-8.14 2.387-10.334 17.11-10.689 35.909-17.691 55.876-20.81 45.821-7.177 92.276-9.714 138.073-7.542 2.812.134 5.312 1.831 6.475 4.395s.792 5.563-.961 7.766c-6.674 8.389-10.349 18.866-10.349 29.501 0 2.1.143 4.228.424 6.323 1.411 10.613 6.177 20.167 13.782 27.637 7.385 7.245 17.061 11.952 27.244 13.251 2.671.341 4.954 2.087 5.982 4.575 1.028 2.489.644 5.337-1.008 7.464-6.412 8.259-9.944 18.601-9.944 29.12 0 11.652 4.276 22.872 12.042 31.593 9.002 10.095 21.935 15.887 35.479 15.887 8.753 0 17.307-2.403 24.736-6.948 2.288-1.4 5.15-1.471 7.505-.187 2.355 1.285 3.845 3.73 3.907 6.412.253 10.987 4.373 21.635 11.602 29.983 4.482 5.181 9.894 9.24 16.085 12.067 3.768 1.72 5.428 6.169 3.708 9.938-1.261 2.76-3.983 4.388-6.829 4.388z"/><g><path d="m432.314 104.086c-5.986 0-11.959-2.281-16.472-6.794l-1.663-1.663c-8.619-8.619-9.098-22.568-1.088-31.757l16.767-19.236c4.223-4.845 10.329-7.75 16.752-7.97 6.436-.221 12.714 2.26 17.258 6.805l4.133 4.133c4.545 4.545 7.025 10.835 6.805 17.259-.22 6.423-3.125 12.529-7.97 16.752l-19.236 16.765c-4.378 3.816-9.838 5.706-15.286 5.706zm15.104-52.434c-.098 0-.196.001-.294.005-2.318.08-4.434 1.086-5.958 2.834l-16.767 19.236c-2.849 3.268-2.678 8.229.387 11.295l1.663 1.663c3.064 3.065 8.025 3.236 11.294.387l19.237-16.766c1.748-1.524 2.755-3.64 2.834-5.958s-.78-4.498-2.42-6.139l-4.133-4.133c-1.57-1.569-3.636-2.424-5.843-2.424z"/><path d="m369.645 72.259c-1.982 0-3.992-.256-5.986-.79l-2.272-.609c-11.773-3.154-19.162-14.996-16.821-26.958l4.902-25.042c1.235-6.307 5.07-11.876 10.523-15.278 5.454-3.402 12.142-4.399 18.348-2.736l5.646 1.513c6.208 1.664 11.502 5.871 14.523 11.544s3.558 12.413 1.474 18.492l-8.276 24.138c-3.285 9.578-12.341 15.726-22.061 15.726zm-2.104-15.278c4.185 1.122 8.569-1.211 9.975-5.312l8.276-24.138c.752-2.194.566-4.53-.524-6.577s-2.925-3.506-5.166-4.106l-5.645-1.513c-2.24-.6-4.559-.255-6.526.973-1.968 1.228-3.297 3.158-3.743 5.434l-4.902 25.042c-.833 4.254 1.795 8.466 5.982 9.588z"/><path d="m463.121 167.339c-10.33 0-19.748-6.946-22.51-17.254l-.609-2.272c-3.155-11.774 3.406-24.094 14.936-28.047l24.139-8.276c6.079-2.083 12.821-1.547 18.492 1.474 5.673 3.021 9.881 8.314 11.544 14.522l1.513 5.646c1.663 6.208.666 12.896-2.737 18.349-3.402 5.452-8.971 9.288-15.278 10.522l-25.042 4.902c-1.489.293-2.979.434-4.448.434zm23.52-42.113c-.904 0-1.813.151-2.699.454l-24.139 8.276c-4.101 1.406-6.434 5.788-5.312 9.975l.608 2.272c1.122 4.188 5.337 6.815 9.588 5.982l25.042-4.902c2.276-.446 4.206-1.775 5.434-3.742 1.228-1.968 1.574-4.286.973-6.526l-1.513-5.645c-.6-2.24-2.058-4.075-4.105-5.165-1.22-.651-2.543-.979-3.877-.979z"/></g><path d="m122.627 262.895c-28.758 0-52.154-23.396-52.154-52.153 0-28.758 23.396-52.154 52.154-52.154 28.757 0 52.153 23.396 52.153 52.154.001 28.757-23.395 52.153-52.153 52.153zm0-89.307c-20.487 0-37.154 16.667-37.154 37.154 0 20.486 16.667 37.153 37.154 37.153 20.486 0 37.153-16.667 37.153-37.153.001-20.487-16.666-37.154-37.153-37.154z"/><path d="m121.269 364.847c-16.99 0-30.813-13.823-30.813-30.813s13.823-30.813 30.813-30.813 30.812 13.823 30.812 30.813-13.822 30.813-30.812 30.813zm0-46.625c-8.719 0-15.813 7.094-15.813 15.813s7.094 15.813 15.813 15.813 15.812-7.094 15.812-15.813-7.093-15.813-15.812-15.813z"/><path d="m231.432 439.648c-13.12 0-23.793-10.674-23.793-23.794s10.674-23.794 23.793-23.794 23.793 10.674 23.793 23.794-10.674 23.794-23.793 23.794zm0-32.587c-4.849 0-8.793 3.945-8.793 8.794s3.945 8.794 8.793 8.794 8.793-3.945 8.793-8.794-3.945-8.794-8.793-8.794z"/><path d="m247.725 255.538c-13.12 0-23.793-10.674-23.793-23.794s10.674-23.794 23.793-23.794c13.12 0 23.794 10.674 23.794 23.794s-10.674 23.794-23.794 23.794zm0-32.588c-4.849 0-8.793 3.945-8.793 8.794s3.945 8.794 8.793 8.794c4.849 0 8.794-3.945 8.794-8.794s-3.945-8.794-8.794-8.794z"/><path d="m350.079 376.126c-20.1 0-36.452-16.352-36.452-36.452s16.352-36.452 36.452-36.452 36.452 16.352 36.452 36.452-16.353 36.452-36.452 36.452zm0-57.904c-11.829 0-21.452 9.623-21.452 21.452s9.623 21.452 21.452 21.452 21.452-9.623 21.452-21.452-9.624-21.452-21.452-21.452z"/><path d="m362.208 174.421c-1.508 0-3.036-.241-4.536-.736l-21.042-6.94c-4.58-1.51-8.062-5.193-9.315-9.85-1.252-4.657-.087-9.59 3.117-13.194l12.535-14.101c3.305-3.717 8.201-5.432 13.104-4.583 4.9.848 8.939 4.106 10.803 8.717l8.506 21.042c2.108 5.215 1.029 11.005-2.815 15.11-2.765 2.952-6.494 4.535-10.357 4.535zm-19.834-21.577 18.515 6.107-7.485-18.516zm-6.336-4.16h.01z"/><path d="m416.08 228.076c-2.497 0-5.01-.615-7.338-1.86-5.387-2.881-8.516-8.459-8.167-14.558l1.492-26.128c.298-5.229 3.184-9.916 7.718-12.538s10.036-2.785 14.717-.436l19.919 9.996c4.827 2.423 8 7.081 8.487 12.46s-1.798 10.531-6.112 13.782l-21.411 16.132c-2.77 2.088-6.025 3.15-9.305 3.15zm1.469-42.175c-.072 0-.157.019-.256.076-.236.136-.246.313-.251.408l-1.492 26.129c-.009.151-.019.322.266.474.283.152.422.05.542-.042l21.411-16.132c.084-.063.225-.169.199-.449-.025-.28-.183-.359-.277-.406l-19.919-9.996c-.048-.025-.123-.062-.223-.062z"/></g></g></svg>
