<svg data-v-fde0c5aa="" xmlns="http://www.w3.org/2000/svg" viewBox="0 0 300 300" class="iconLeft"><!----><defs data-v-fde0c5aa=""><!----></defs><rect data-v-fde0c5aa="" fill="transparent" x="0" y="0" width="300px" height="300px" class="logo-background-square"></rect><defs data-v-fde0c5aa=""><!----></defs><g data-v-fde0c5aa="" id="3907b40d-bb14-46b1-b0c5-fda120a89eeb" fill="#333" transform="matrix(2.151494854137149,0,0,2.151494854137149,99.00363356063067,121.39587472418788)"><path d="M1.50 7.11L3.93 7.11L6.27 15.21L8.61 7.11L11.01 7.11L11.01 7.11Q11.09 9.55 11.17 11.59L11.17 11.59L11.17 11.59Q11.19 12.17 11.22 12.76L11.22 12.76L11.22 12.76Q11.25 13.34 11.27 13.90L11.27 13.90L11.27 13.90Q11.30 14.46 11.33 14.96L11.33 14.96L11.33 14.96Q11.35 15.46 11.38 15.88L11.38 15.88L11.38 15.88Q11.40 16.30 11.43 16.61L11.43 16.61L11.43 16.61Q11.46 16.92 11.48 17.09L11.48 17.09L9.64 17.09L9.47 9.34L7.28 17.09L5.26 17.09L3.06 9.37L2.87 17.09L1.03 17.09L1.03 17.09Q1.05 16.92 1.07 16.61L1.07 16.61L1.07 16.61Q1.10 16.30 1.12 15.88L1.12 15.88L1.12 15.88Q1.15 15.46 1.18 14.96L1.18 14.96L1.18 14.96Q1.20 14.46 1.23 13.90L1.23 13.90L1.23 13.90Q1.26 13.34 1.28 12.76L1.28 12.76L1.28 12.76Q1.31 12.17 1.33 11.59L1.33 11.59L1.33 11.59Q1.42 9.55 1.50 7.11L1.50 7.11ZM18.29 12.10L18.29 11.65L18.29 11.65Q18.14 11.61 17.87 11.56L17.87 11.56L17.87 11.56Q17.60 11.51 17.16 11.51L17.16 11.51L17.16 11.51Q16.62 11.51 16.26 11.74L16.26 11.74L16.26 11.74Q15.89 11.98 15.68 12.37L15.68 12.37L15.68 12.37Q15.46 12.76 15.37 13.25L15.37 13.25L15.37 13.25Q15.28 13.75 15.28 14.29L15.28 14.29L15.28 14.29Q15.28 14.59 15.34 14.83L15.34 14.83L15.34 14.83Q15.39 15.08 15.50 15.26L15.50 15.26L15.50 15.26Q15.60 15.44 15.74 15.53L15.74 15.53L15.74 15.53Q15.87 15.63 16.03 15.63L16.03 15.63L16.03 15.63Q16.28 15.63 16.55 15.43L16.55 15.43L16.55 15.43Q16.82 15.22 17.07 14.89L17.07 14.89L17.07 14.89Q17.32 14.56 17.54 14.16L17.54 14.16L17.54 14.16Q17.76 13.75 17.93 13.36L17.93 13.36L17.93 13.36Q18.09 12.97 18.19 12.63L18.19 12.63L18.19 12.63Q18.29 12.30 18.29 12.10L18.29 12.10ZM20.69 17.09L18.87 17.09L18.87 17.09Q18.79 16.97 18.72 16.71L18.72 16.71L18.72 16.71Q18.66 16.45 18.60 16.16L18.60 16.16L18.60 16.16Q18.55 15.86 18.52 15.57L18.52 15.57L18.52 15.57Q18.49 15.28 18.49 15.09L18.49 15.09L18.49 14.70L18.49 14.70Q18.27 15.14 17.97 15.60L17.97 15.60L17.97 15.60Q17.66 16.05 17.27 16.42L17.27 16.42L17.27 16.42Q16.88 16.79 16.42 17.02L16.42 17.02L16.42 17.02Q15.95 17.26 15.42 17.26L15.42 17.26L15.42 17.26Q14.98 17.26 14.61 17.07L14.61 17.07L14.61 17.07Q14.23 16.88 13.96 16.50L13.96 16.50L13.96 16.50Q13.68 16.13 13.52 15.57L13.52 15.57L13.52 15.57Q13.36 15.01 13.36 14.29L13.36 14.29L13.36 14.29Q13.36 13.47 13.60 12.70L13.60 12.70L13.60 12.70Q13.84 11.92 14.34 11.32L14.34 11.32L14.34 11.32Q14.84 10.71 15.61 10.35L15.61 10.35L15.61 10.35Q16.39 9.98 17.45 9.98L17.45 9.98L17.45 9.98Q18.19 9.98 18.92 10.07L18.92 10.07L18.92 10.07Q19.65 10.15 20.24 10.29L20.24 10.29L20.24 13.47L20.24 13.47Q20.24 14.76 20.36 15.64L20.36 15.64L20.36 15.64Q20.49 16.52 20.69 17.09L20.69 17.09ZM25.59 15.68L25.59 15.68L25.59 15.68Q25.91 15.68 26.20 15.54L26.20 15.54L26.20 15.54Q26.48 15.40 26.70 15.13L26.70 15.13L26.70 15.13Q26.92 14.87 27.05 14.49L27.05 14.49L27.05 14.49Q27.18 14.11 27.18 13.64L27.18 13.64L27.18 13.64Q27.18 13.17 27.09 12.80L27.09 12.80L27.09 12.80Q27.00 12.42 26.83 12.16L26.83 12.16L26.83 12.16Q26.66 11.89 26.41 11.75L26.41 11.75L26.41 11.75Q26.17 11.61 25.86 11.61L25.86 11.61L25.86 11.61Q25.63 11.61 25.40 11.70L25.40 11.70L25.40 11.70Q25.16 11.80 24.93 11.99L24.93 11.99L24.93 11.99Q24.71 12.17 24.51 12.45L24.51 12.45L24.51 12.45Q24.32 12.73 24.17 13.09L24.17 13.09L24.17 15.04L24.17 15.04Q24.43 15.23 24.62 15.36L24.62 15.36L24.62 15.36Q24.81 15.48 24.96 15.56L24.96 15.56L24.96 15.56Q25.12 15.63 25.27 15.65L25.27 15.65L25.27 15.65Q25.42 15.68 25.59 15.68ZM24.34 20.44L22.26 20.44L22.26 13.77L22.26 13.77Q22.26 13.14 22.25 12.60L22.25 12.60L22.25 12.60Q22.24 12.05 22.20 11.60L22.20 11.60L22.20 11.60Q22.17 11.14 22.10 10.77L22.10 10.77L22.10 10.77Q22.03 10.40 21.92 10.12L21.92 10.12L23.80 10.12L23.80 10.12Q23.87 10.27 23.95 10.56L23.95 10.56L23.95 10.56Q24.02 10.86 24.07 11.28L24.07 11.28L24.07 11.28Q24.30 10.99 24.58 10.75L24.58 10.75L24.58 10.75Q24.86 10.51 25.17 10.34L25.17 10.34L25.17 10.34Q25.48 10.17 25.83 10.08L25.83 10.08L25.83 10.08Q26.18 9.98 26.55 9.98L26.55 9.98L26.55 9.98Q27.13 9.98 27.59 10.24L27.59 10.24L27.59 10.24Q28.06 10.49 28.39 10.95L28.39 10.95L28.39 10.95Q28.72 11.42 28.91 12.05L28.91 12.05L28.91 12.05Q29.09 12.68 29.09 13.43L29.09 13.43L29.09 13.43Q29.09 14.31 28.85 15.02L28.85 15.02L28.85 15.02Q28.62 15.72 28.20 16.22L28.20 16.22L28.20 16.22Q27.79 16.72 27.23 16.99L27.23 16.99L27.23 16.99Q26.67 17.26 26.04 17.26L26.04 17.26L26.04 17.26Q25.78 17.26 25.54 17.22L25.54 17.22L25.54 17.22Q25.30 17.17 25.08 17.09L25.08 17.09L25.08 17.09Q24.86 17.01 24.63 16.90L24.63 16.90L24.63 16.90Q24.41 16.79 24.17 16.65L24.17 16.65L24.17 18.12L24.17 18.12Q24.17 18.53 24.18 18.86L24.18 18.86L24.18 18.86Q24.19 19.19 24.21 19.47L24.21 19.47L24.21 19.47Q24.23 19.75 24.27 19.98L24.27 19.98L24.27 19.98Q24.30 20.22 24.34 20.44L24.34 20.44ZM36.54 13.51L36.54 14.12L36.54 14.12Q36.54 15.13 36.56 15.91L36.56 15.91L36.56 15.91Q36.57 16.69 36.65 17.09L36.65 17.09L34.49 17.09L34.49 17.09Q34.57 16.68 34.58 15.90L34.58 15.90L34.58 15.90Q34.60 15.13 34.60 14.12L34.60 14.12L34.60 9.28L34.60 9.28Q34.60 8.80 34.59 8.38L34.59 8.38L34.59 8.38Q34.58 7.97 34.56 7.64L34.56 7.64L34.56 7.64Q34.54 7.31 34.49 7.11L34.49 7.11L34.49 7.11Q35.08 7.10 35.68 7.08L35.68 7.08L35.68 7.08Q35.94 7.07 36.22 7.06L36.22 7.06L36.22 7.06Q36.51 7.06 36.81 7.05L36.81 7.05L36.81 7.05Q37.11 7.05 37.40 7.04L37.40 7.04L37.40 7.04Q37.69 7.04 37.97 7.04L37.97 7.04L37.97 7.04Q38.79 7.04 39.48 7.24L39.48 7.24L39.48 7.24Q40.16 7.44 40.65 7.83L40.65 7.83L40.65 7.83Q41.13 8.22 41.40 8.81L41.40 8.81L41.40 8.81Q41.67 9.40 41.67 10.19L41.67 10.19L41.67 10.19Q41.67 10.98 41.40 11.61L41.40 11.61L41.40 11.61Q41.13 12.24 40.63 12.67L40.63 12.67L40.63 12.67Q40.13 13.11 39.44 13.35L39.44 13.35L39.44 13.35Q38.74 13.58 37.90 13.58L37.90 13.58L37.90 13.58Q37.52 13.58 37.20 13.57L37.20 13.57L37.20 13.57Q36.88 13.55 36.54 13.51L36.54 13.51ZM36.54 8.61L36.54 12.03L36.54 12.03Q36.76 12.07 37.07 12.08L37.07 12.08L37.07 12.08Q37.37 12.10 37.69 12.10L37.69 12.10L37.69 12.10Q38.69 12.10 39.21 11.64L39.21 11.64L39.21 11.64Q39.72 11.18 39.72 10.25L39.72 10.25L39.72 10.25Q39.72 9.88 39.61 9.57L39.61 9.57L39.61 9.57Q39.50 9.26 39.26 9.04L39.26 9.04L39.26 9.04Q39.02 8.83 38.64 8.70L38.64 8.70L38.64 8.70Q38.26 8.58 37.72 8.58L37.72 8.58L37.72 8.58Q37.52 8.58 37.37 8.58L37.37 8.58L37.37 8.58Q37.21 8.59 37.07 8.59L37.07 8.59L37.07 8.59Q36.94 8.59 36.81 8.60L36.81 8.60L36.81 8.60Q36.69 8.61 36.54 8.61L36.54 8.61ZM44.71 13.62L44.71 13.62L44.71 13.62Q44.71 14.12 44.81 14.50L44.81 14.50L44.81 14.50Q44.90 14.89 45.08 15.16L45.08 15.16L45.08 15.16Q45.26 15.44 45.53 15.58L45.53 15.58L45.53 15.58Q45.80 15.72 46.15 15.72L46.15 15.72L46.15 15.72Q46.48 15.72 46.74 15.58L46.74 15.58L46.74 15.58Q47.01 15.44 47.20 15.16L47.20 15.16L47.20 15.16Q47.39 14.89 47.49 14.50L47.49 14.50L47.49 14.50Q47.58 14.12 47.58 13.62L47.58 13.62L47.58 13.62Q47.58 12.64 47.22 12.08L47.22 12.08L47.22 12.08Q46.85 11.52 46.15 11.52L46.15 11.52L46.15 11.52Q45.82 11.52 45.55 11.66L45.55 11.66L45.55 11.66Q45.29 11.81 45.10 12.08L45.10 12.08L45.10 12.08Q44.91 12.35 44.81 12.74L44.81 12.74L44.81 12.74Q44.71 13.13 44.71 13.62ZM42.80 13.62L42.80 13.62L42.80 13.62Q42.80 12.74 43.07 12.06L43.07 12.06L43.07 12.06Q43.35 11.38 43.81 10.92L43.81 10.92L43.81 10.92Q44.28 10.46 44.91 10.22L44.91 10.22L44.91 10.22Q45.53 9.98 46.22 9.98L46.22 9.98L46.22 9.98Q46.94 9.98 47.55 10.22L47.55 10.22L47.55 10.22Q48.15 10.46 48.59 10.92L48.59 10.92L48.59 10.92Q49.02 11.38 49.26 12.06L49.26 12.06L49.26 12.06Q49.50 12.74 49.50 13.62L49.50 13.62L49.50 13.62Q49.50 14.51 49.23 15.19L49.23 15.19L49.23 15.19Q48.95 15.87 48.48 16.33L48.48 16.33L48.48 16.33Q48.02 16.79 47.39 17.02L47.39 17.02L47.39 17.02Q46.77 17.26 46.08 17.26L46.08 17.26L46.08 17.26Q45.36 17.26 44.75 17.02L44.75 17.02L44.75 17.02Q44.15 16.79 43.72 16.33L43.72 16.33L43.72 16.33Q43.29 15.87 43.04 15.19L43.04 15.19L43.04 15.19Q42.80 14.51 42.80 13.62ZM53.02 17.09L51.11 17.09L51.11 12.89L51.11 12.89Q51.11 11.87 50.99 11.17L50.99 11.17L50.99 11.17Q50.88 10.47 50.76 10.12L50.76 10.12L52.64 10.12L52.64 10.12Q52.68 10.23 52.73 10.40L52.73 10.40L52.73 10.40Q52.77 10.58 52.80 10.77L52.80 10.77L52.80 10.77Q52.83 10.96 52.86 11.14L52.86 11.14L52.92 11.45L52.92 11.45Q53.16 11.09 53.44 10.82L53.44 10.82L53.44 10.82Q53.72 10.55 54.01 10.36L54.01 10.36L54.01 10.36Q54.29 10.17 54.56 10.08L54.56 10.08L54.56 10.08Q54.84 9.98 55.07 9.98L55.07 9.98L55.07 9.98Q55.55 9.98 55.89 10.19L55.89 10.19L55.89 10.19Q56.23 10.39 56.44 10.74L56.44 10.74L56.44 10.74Q56.66 11.09 56.75 11.56L56.75 11.56L56.75 11.56Q56.85 12.02 56.85 12.54L56.85 12.54L55.32 12.78L55.32 12.78Q55.29 12.32 55.10 12.03L55.10 12.03L55.10 12.03Q54.91 11.75 54.47 11.75L54.47 11.75L54.47 11.75Q54.30 11.75 54.08 11.90L54.08 11.90L54.08 11.90Q53.87 12.05 53.66 12.29L53.66 12.29L53.66 12.29Q53.46 12.53 53.28 12.84L53.28 12.84L53.28 12.84Q53.11 13.15 53.02 13.47L53.02 13.47L53.02 17.09ZM62.42 11.59L60.33 11.59L60.33 13.93L60.33 13.93Q60.33 14.51 60.38 14.86L60.38 14.86L60.38 14.86Q60.43 15.20 60.54 15.39L60.54 15.39L60.54 15.39Q60.64 15.57 60.81 15.63L60.81 15.63L60.81 15.63Q60.97 15.68 61.20 15.68L61.20 15.68L61.20 15.68Q61.46 15.68 61.79 15.55L61.79 15.55L61.79 15.55Q62.11 15.42 62.52 15.17L62.52 15.17L62.52 16.70L62.52 16.70Q62.03 17.01 61.58 17.13L61.58 17.13L61.58 17.13Q61.13 17.26 60.76 17.26L60.76 17.26L60.76 17.26Q60.28 17.26 59.85 17.17L59.85 17.17L59.85 17.17Q59.42 17.08 59.11 16.84L59.11 16.84L59.11 16.84Q58.79 16.61 58.60 16.23L58.60 16.23L58.60 16.23Q58.42 15.84 58.42 15.24L58.42 15.24L58.42 11.59L57.12 11.59L57.12 10.22L58.42 10.22L58.42 8.07L60.33 8.07L60.33 10.22L62.42 10.22L62.42 11.59ZM68.57 12.10L68.57 11.65L68.57 11.65Q68.43 11.61 68.15 11.56L68.15 11.56L68.15 11.56Q67.88 11.51 67.44 11.51L67.44 11.51L67.44 11.51Q66.90 11.51 66.54 11.74L66.54 11.74L66.54 11.74Q66.18 11.98 65.96 12.37L65.96 12.37L65.96 12.37Q65.75 12.76 65.66 13.25L65.66 13.25L65.66 13.25Q65.56 13.75 65.56 14.29L65.56 14.29L65.56 14.29Q65.56 14.59 65.62 14.83L65.62 14.83L65.62 14.83Q65.68 15.08 65.78 15.26L65.78 15.26L65.78 15.26Q65.88 15.44 66.02 15.53L66.02 15.53L66.02 15.53Q66.16 15.63 66.32 15.63L66.32 15.63L66.32 15.63Q66.57 15.63 66.83 15.43L66.83 15.43L66.83 15.43Q67.10 15.22 67.35 14.89L67.35 14.89L67.35 14.89Q67.60 14.56 67.82 14.16L67.82 14.16L67.82 14.16Q68.04 13.75 68.21 13.36L68.21 13.36L68.21 13.36Q68.38 12.97 68.48 12.63L68.48 12.63L68.48 12.63Q68.57 12.30 68.57 12.10L68.57 12.10ZM70.97 17.09L69.15 17.09L69.15 17.09Q69.08 16.97 69.01 16.71L69.01 16.71L69.01 16.71Q68.94 16.45 68.89 16.16L68.89 16.16L68.89 16.16Q68.84 15.86 68.81 15.57L68.81 15.57L68.81 15.57Q68.78 15.28 68.78 15.09L68.78 15.09L68.78 14.70L68.78 14.70Q68.56 15.14 68.25 15.60L68.25 15.60L68.25 15.60Q67.95 16.05 67.56 16.42L67.56 16.42L67.56 16.42Q67.17 16.79 66.70 17.02L66.70 17.02L66.70 17.02Q66.23 17.26 65.70 17.26L65.70 17.26L65.70 17.26Q65.27 17.26 64.89 17.07L64.89 17.07L64.89 17.07Q64.52 16.88 64.24 16.50L64.24 16.50L64.24 16.50Q63.96 16.13 63.81 15.57L63.81 15.57L63.81 15.57Q63.65 15.01 63.65 14.29L63.65 14.29L63.65 14.29Q63.65 13.47 63.89 12.70L63.89 12.70L63.89 12.70Q64.13 11.92 64.63 11.32L64.63 11.32L64.63 11.32Q65.13 10.71 65.90 10.35L65.90 10.35L65.90 10.35Q66.67 9.98 67.73 9.98L67.73 9.98L67.73 9.98Q68.48 9.98 69.21 10.07L69.21 10.07L69.21 10.07Q69.94 10.15 70.53 10.29L70.53 10.29L70.53 13.47L70.53 13.47Q70.53 14.76 70.65 15.64L70.65 15.64L70.65 15.64Q70.77 16.52 70.97 17.09L70.97 17.09ZM74.70 6.15L74.70 13.84L74.70 13.84Q74.70 14.17 74.71 14.62L74.71 14.62L74.71 14.62Q74.72 15.06 74.73 15.52L74.73 15.52L74.73 15.52Q74.75 15.98 74.77 16.39L74.77 16.39L74.77 16.39Q74.80 16.81 74.83 17.09L74.83 17.09L72.78 17.09L72.78 9.37L72.78 9.37Q72.78 8.37 72.75 7.56L72.75 7.56L72.75 7.56Q72.71 6.75 72.65 6.15L72.65 6.15L74.70 6.15Z"></path></g><defs data-v-fde0c5aa=""><linearGradient data-v-fde0c5aa="" gradientTransform="rotate(25)" id="817f8fc8-0a73-49bf-bbd0-5837d2e3df4d" x1="0%" y1="0%" x2="100%" y2="0%"><stop data-v-fde0c5aa="" offset="0%" stop-color="#41E296" stop-opacity="1"></stop><stop data-v-fde0c5aa="" offset="100%" stop-color="#00C4EE" stop-opacity="1"></stop></linearGradient></defs><g data-v-fde0c5aa="" id="c206e21b-4a09-4856-a311-7d59e36b9d93" stroke="none" fill="url(#817f8fc8-0a73-49bf-bbd0-5837d2e3df4d)" transform="matrix(0.48219673198837176,0,0,0.48219673198837176,40,126.28556486106876)"><path d="M100 97l-34.152-9.154-31.695 8.494L0 87.188V1.36l34.153 9.153L65.848 2.02 100 11.171V97zM65.848 85.789l32.165 8.618v-81.71l-32.165-8.62-31.695 8.494L1.988 3.952v81.71l32.165 8.62 31.695-8.493z"></path><path d="M32.204 39.276l.031-.031V20.666l-9.009 9.301zM16.711 55.273L4.374 42.48v25.53zM30.993 40.528L4.374 12.923v27.05l13.548 14.048zM21.651 28.333l10.584-10.928v-2.877L4.374 7.061v3.354zM18.053 57.146L4.374 71.27v12.562l27.861 7.465v-9.433zM32.235 42.506L19.331 55.828l12.904 22.491zM36.069 37.52v4.739l3.692 1.85L63.27 7.24l-9.52 2.55zM41.337 44.898l7.606 3.813L63.931 34.86V9.464zM63.931 37.238l-13.32 12.309 13.32 6.675zM36.069 34.259l6.932-10.87-6.932-3.474zM37.664 85.901l3.369 4.069 22.898-6.138v-9.636zM36.069 44.767v39.209l.374.452 27.488-12.249v-13.45zM44.213 21.488l7.03-11.026-15.174 4.066v2.881zM36.069 87.521v3.776l2.562-.685zM80.266 74.643l-12.501-1.128v10.317l27.861 7.465v-.726zM67.765 61.679v9.817l10.37.936zM95.626 58.758l-24.455-25.36-3.406 1.322v24.451l27.861 28.892zM67.765 32.342l27.861-10.817v-6.997L67.765 7.063zM72.93 32.715L95.626 56.25V23.903z"></path></g><!----></svg>
